<svg id="Graphic_Element_" data-name="Graphic Element
" xmlns="http://www.w3.org/2000/svg" viewBox="0 0 1200 1200"><g id="g4138"><path id="rect4163" d="M601.71,60a67.28,67.28,0,0,0-26.08,5.42c-19.72,9.17-30.29,29.91-49,40.58-13.92,8.5-30.78,10.46-46.77,9.63-23-.74-48,4.36-64.52,21.5-13.89,14.12-18.51,35.21-15.84,54.4,3.35,31.8,21.53,58.91,35.83,86.54,7.12,14.78,14.82,29.38,20.78,44.68-3.47.82-7.15,0-10.68.28-10.38-.82-20.24,7.19-22.22,17.29-2.36,11,5.66,22.82,16.68,24.93,1.52-.89,1.93,1.42.65,1.33A22.08,22.08,0,0,0,423,385.06c-1.51,10.79,6.55,21.56,17.15,23.64,6.88,1,13.91-.19,20.81.68a4.21,4.21,0,0,1-.77.75A380.82,380.82,0,0,0,294.28,536.64c-49.08,65-76.15,146.46-75.31,228,.26,27.68-.51,55.39.4,83,.82,42.83,3.4,86.32,15.82,127.56,9.25,29.92,24.48,58.43,46.79,80.67,21.18,21.47,47.53,37.27,75.37,48.57,69.8,27.87,146,33.49,220.41,35.45,71.68.42,144.1-2.07,214.1-19.06,46.64-11.67,93.32-31,127.28-66.12,21.59-22,36.51-49.75,45.52-79,8.37-27,12.18-55.16,14.23-83.27,3.07-44,1.94-88.16,2.19-132.26-.37-8.44-.37-16.9-1.52-25.3-5.34-89-45.28-175.28-108.42-238.17-14.17-14.08-29-27.87-45.54-39.21-16.91-18.89-35.15-36.82-56.06-51.32-.47-.35-1.2-.73-.94-1.43a22.11,22.11,0,0,0,8.1-13c2.67-11.4-6.12-23.49-17.55-25.19-1.14.12-.94-1.42.11-1.18,13.76-1.71,22.54-18.81,15.37-30.87-4.82-10.06-16.77-12.84-26.94-11.75,6.56-16.58,14.8-32.5,22.77-48.45,8.78-17.57,19.5-34.23,26.27-52.75,6.44-17.46,10.43-36.53,6.68-55.06-3.77-22.48-22.18-40.37-43.78-46.34-12.61-4.49-26.25-4.82-39.5-4.51-14.77.53-30.16-1.83-42.94-9.63-17.81-10.15-28.12-29.4-46.18-39.2A62.84,62.84,0,0,0,601.69,60Z" style="fill:#c29945"/><path id="path6" d="M759.62,120.16c-5.86,16.59-10.45,33.6-15.88,50.34-14.52,43.89-49.85,78.64-91.22,98C608,290,557.38,296.82,508.36,293.33a291.87,291.87,0,0,1-73-15.24c7.12,14.78,14.82,29.38,20.77,44.67q145.76,0,291.53,0c6.55-16.58,14.79-32.49,22.77-48.45,8.79-17.57,19.49-34.22,26.27-52.74,6.45-17.46,10.43-36.53,6.68-55.07-3.77-22.48-22.17-40.37-43.79-46.34ZM871.13,496.72a381.78,381.78,0,0,1,36,166.92c-.72,67.88,3.44,137.41-15,203.52-9.41,33.29-26.56,64.79-51.89,88.62-22.69,21.75-50.78,37-80,48.1-71.59,26.13-148.82,30.79-224.31,32.19-39.92.1-79.9-1-119.63-5.17-62.92-6.91-127.63-19.91-181.1-55.64,9.25,29.92,24.47,58.44,46.79,80.67,21.18,21.48,47.53,37.26,75.36,48.58,69.81,27.85,146.05,33.49,220.43,35.45,71.67.41,144.08-2.09,214.1-19.06,46.61-11.68,93.31-31,127.26-66.12,21.58-22,36.52-49.75,45.52-79.06,8.38-27,12.18-55.16,14.25-83.27,3.05-44,1.93-88.17,2.19-132.26-.38-8.44-.38-16.9-1.53-25.28-5.35-89-45.27-175.31-108.43-238.19Z" style="fill:#a37f36"/><path id="path8" d="M888.16,231.73c.22,1-1.08,4.09-1.08,5.92A4.64,4.64,0,0,1,888.16,231.73Z" style="fill:#fed573"/><path id="path10" d="M456.15,322.77q145.79-.06,291.54,0c10.16-1.1,22.11,1.69,26.95,11.74,7.17,12.06-1.62,29.16-15.39,30.87-1-.23-1.24,1.3-.09,1.18,11.44,1.7,20.2,13.79,17.55,25.19a22.24,22.24,0,0,1-8.12,13c-.26.7.48,1.08.95,1.44,20.9,14.49,39.16,32.43,56.05,51.32,39.92,48.33,62.54,108.45,75.63,169.15,1.69,7-3.25,14.56-10.19,16.15-7.52,2.29-15.9-3.31-17-11-7.87-35.74-18.92-71-35.49-103.73-16.57-32.56-38.93-62.83-67.41-85.77a302,302,0,0,1,32.75,120.43c2.55,37.37-.83,75-7.59,111.77-.41,5.92-3.21,12.26-9.23,14.33-9,4.08-19.79-3.95-19.06-13.63,5.26-28.9,9.18-58.24,8.86-87.68.57-39.7-6.66-79.78-22.72-116.19a280.23,280.23,0,0,0-37.78-61.75c-85.1-.38-170.23,0-255.37-.19-6.91-.86-13.93.35-20.82-.67-10.59-2.07-18.65-12.84-17.14-23.64a22.08,22.08,0,0,1,17.58-18.46c1.28.09.87-2.22-.65-1.33-11-2.11-19-13.9-16.68-24.93,2-10.1,11.84-18.11,22.22-17.29,3.53-.26,7.21.54,10.67-.28Z" style="fill:#fed573"/></g></svg>